<svg viewBox="150 150 1200 1200" fill="none" xmlns="http://www.w3.org/2000/svg">
<path fill-rule="evenodd" clip-rule="evenodd" d="M898.018 1103.27H749.534H599.581C586.189 1103.27 573.628 1096.78 565.883 1085.85C561.53 1079.71 559.07 1072.63 558.487 1065.42C551.277 967.687 503.606 892.457 440.322 805.14C383.829 736.097 349 646.703 349 550.534C349 329.325 528.325 150 749.534 150C970.743 150 1150.07 329.325 1150.07 550.534C1150.07 645.592 1113.96 736.59 1058.64 805.274C995.353 892.589 946.366 967.087 939.156 1064.82C938.667 1072.19 936.223 1079.45 931.805 1085.73C924.07 1096.73 911.465 1103.27 898.018 1103.27ZM803.811 367.682L777.639 308.578C776.354 305.675 773.492 303.805 770.335 303.805H728.734C725.576 303.805 722.715 305.675 721.429 308.578L695.257 367.682C694.42 369.573 692.891 371.066 690.988 371.852L665.84 382.238C663.87 383.052 661.66 383.041 659.698 382.208L601.286 357.412C598.317 356.151 594.886 356.808 592.584 359.078L561.826 389.397C559.509 391.68 558.791 395.145 560.008 398.17L583.933 457.675C584.736 459.673 584.71 461.912 583.86 463.891L573.714 487.512C572.868 489.48 571.278 491.027 569.295 491.811L514.29 513.54C511.228 514.749 509.214 517.723 509.214 521.034V567.217C509.214 570.528 511.228 573.502 514.29 574.712L569.295 596.44C571.278 597.224 572.868 598.771 573.714 600.74L583.86 624.36C584.71 626.339 584.736 628.578 583.933 630.576L560.008 690.081C558.791 693.106 559.509 696.571 561.826 698.854L592.584 729.173C594.886 731.443 598.317 732.1 601.286 730.839L659.698 706.043C661.66 705.21 663.87 705.199 665.84 706.013L690.988 716.399C692.891 717.185 694.42 718.678 695.257 720.569L721.429 779.673C722.715 782.576 725.576 784.446 728.734 784.446H770.335C773.492 784.446 776.354 782.576 777.639 779.673L803.811 720.569C804.648 718.678 806.177 717.185 808.08 716.399L833.228 706.013C835.198 705.199 837.409 705.21 839.371 706.043L897.782 730.839C900.751 732.1 904.182 731.443 906.484 729.173L937.243 698.854C939.559 696.571 940.277 693.106 939.06 690.081L915.135 630.576C914.332 628.578 914.358 626.339 915.208 624.36L925.354 600.74C926.2 598.771 927.791 597.224 929.773 596.44L984.778 574.712C987.84 573.502 989.854 570.528 989.854 567.217V521.034C989.854 517.723 987.84 514.749 984.778 513.54L929.773 491.811C927.791 491.027 926.2 489.48 925.354 487.512L915.208 463.891C914.358 461.912 914.332 459.673 915.135 457.675L939.06 398.17C940.277 395.145 939.559 391.68 937.243 389.397L906.484 359.078C904.182 356.808 900.751 356.151 897.782 357.412L839.371 382.208C837.409 383.041 835.198 383.052 833.228 382.238L808.08 371.852C806.177 371.066 804.648 369.573 803.811 367.682Z" fill="#1583FA"/>
<path d="M822.431 544.126C822.431 583.943 790.153 616.222 750.335 616.222C710.518 616.222 678.239 583.943 678.239 544.126C678.239 504.308 710.518 472.029 750.335 472.029C790.153 472.029 822.431 504.308 822.431 544.126Z" fill="#1583FA"/>
<path d="M749.534 1128.91H897.177C911.116 1128.91 924.264 1135.99 932.076 1147.54C941.691 1161.75 941.674 1180.64 931.805 1194.67C924.07 1205.67 911.465 1212.22 898.018 1212.22H749.534H599.581C586.189 1212.22 573.628 1205.72 565.883 1194.8C555.895 1180.71 555.877 1161.67 565.61 1147.41C573.433 1135.94 586.536 1128.91 600.419 1128.91H749.534Z" fill="#1583FA"/>
<path d="M749.534 1236.25H897.177C911.116 1236.25 924.264 1243.34 932.076 1254.88C941.691 1269.09 941.674 1287.98 931.805 1302.02C924.07 1313.01 911.465 1319.56 898.018 1319.56H848.109C847.803 1320.7 847.446 1321.84 847.039 1322.96C841.122 1339.19 825.685 1350 808.403 1350H749.148H689.105C671.862 1350 656.449 1339.24 650.504 1323.06C650.082 1321.91 649.713 1320.74 649.398 1319.56H599.581C586.189 1319.56 573.628 1313.07 565.883 1302.14C555.895 1288.05 555.877 1269.02 565.61 1254.75C573.433 1243.28 586.536 1236.25 600.419 1236.25H749.534Z" fill="#1583FA"/>
</svg>
