<svg width="1436" height="212" viewBox="0 0 1436 212" fill="none" xmlns="http://www.w3.org/2000/svg">
<path d="M1389.32 163.592C1388.45 163.592 1387.77 163.352 1387.29 162.871C1386.83 162.362 1386.61 161.669 1386.61 160.792V137.879H1378.33C1377.6 137.879 1377.02 137.681 1376.59 137.285C1376.2 136.861 1376 136.295 1376 135.588C1376 134.853 1376.2 134.301 1376.59 133.933C1377.02 133.537 1377.6 133.339 1378.33 133.339H1400.31C1401.05 133.339 1401.61 133.537 1402.01 133.933C1402.43 134.301 1402.65 134.853 1402.65 135.588C1402.65 136.295 1402.43 136.861 1402.01 137.285C1401.61 137.681 1401.05 137.879 1400.31 137.879H1392.04V160.792C1392.04 161.669 1391.81 162.362 1391.36 162.871C1390.91 163.352 1390.23 163.592 1389.32 163.592Z" fill="white"/>
<path d="M1408.29 163.592C1407.5 163.592 1406.89 163.366 1406.47 162.913C1406.04 162.461 1405.83 161.838 1405.83 161.046V135.546C1405.83 134.725 1406.06 134.103 1406.51 133.679C1406.96 133.226 1407.59 133 1408.38 133C1409.09 133 1409.64 133.141 1410.03 133.424C1410.46 133.679 1410.84 134.131 1411.18 134.782L1421.66 154.173H1420.3L1430.78 134.782C1431.12 134.131 1431.49 133.679 1431.88 133.424C1432.28 133.141 1432.83 133 1433.54 133C1434.33 133 1434.94 133.226 1435.36 133.679C1435.79 134.103 1436 134.725 1436 135.546V161.046C1436 161.838 1435.79 162.461 1435.36 162.913C1434.97 163.366 1434.36 163.592 1433.54 163.592C1432.75 163.592 1432.14 163.366 1431.71 162.913C1431.29 162.461 1431.08 161.838 1431.08 161.046V141.401H1432.01L1423.1 157.652C1422.82 158.133 1422.52 158.486 1422.21 158.713C1421.9 158.939 1421.47 159.052 1420.94 159.052C1420.4 159.052 1419.96 158.939 1419.62 158.713C1419.28 158.458 1418.99 158.104 1418.73 157.652L1409.74 141.359H1410.75V161.046C1410.75 161.838 1410.54 162.461 1410.12 162.913C1409.72 163.366 1409.11 163.592 1408.29 163.592Z" fill="white"/>
<path d="M80.5877 66.98V85.6H51.3277V164H29.4877V85.6H0.227735V66.98H80.5877ZM123.044 65.86C137.604 65.86 148.757 68.4733 156.504 73.7C164.25 78.8333 168.124 86.86 168.124 97.78C168.124 104.593 166.537 110.147 163.364 114.44C160.284 118.64 155.804 121.953 149.924 124.38C151.884 126.807 153.937 129.607 156.084 132.78C158.231 135.86 160.331 139.127 162.384 142.58C164.53 145.94 166.584 149.487 168.544 153.22C170.504 156.86 172.324 160.453 174.004 164H149.504C147.73 160.827 145.91 157.607 144.044 154.34C142.27 151.073 140.404 147.9 138.444 144.82C136.577 141.74 134.71 138.847 132.844 136.14C130.977 133.34 129.11 130.82 127.244 128.58H116.464V164H94.6238V68.38C99.3838 67.4467 104.284 66.7933 109.324 66.42C114.457 66.0467 119.03 65.86 123.044 65.86ZM124.304 84.48C122.717 84.48 121.27 84.5267 119.964 84.62C118.75 84.7133 117.584 84.8067 116.464 84.9V111.22H122.624C130.837 111.22 136.717 110.193 140.264 108.14C143.81 106.087 145.584 102.587 145.584 97.64C145.584 92.88 143.764 89.52 140.124 87.56C136.577 85.5067 131.304 84.48 124.304 84.48ZM188.003 164V66.98H253.523V85.32H209.843V104.36H248.623V122.28H209.843V145.66H256.743V164H188.003ZM303.249 164C299.422 155.88 295.642 147.433 291.909 138.66C288.176 129.887 284.629 121.207 281.269 112.62C277.909 104.033 274.782 95.82 271.889 87.98C269.089 80.14 266.662 73.14 264.609 66.98H288.689C290.556 72.58 292.562 78.6467 294.709 85.18C296.949 91.62 299.189 98.06 301.429 104.5C303.762 110.94 306.002 117.1 308.149 122.98C310.296 128.86 312.302 133.947 314.169 138.24C315.942 133.947 317.902 128.86 320.049 122.98C322.289 117.1 324.529 110.94 326.769 104.5C329.102 98.06 331.342 91.62 333.489 85.18C335.729 78.6467 337.782 72.58 339.649 66.98H362.889C360.742 73.14 358.269 80.14 355.469 87.98C352.669 95.82 349.589 104.033 346.229 112.62C342.869 121.207 339.322 129.887 335.589 138.66C331.856 147.433 328.076 155.88 324.249 164H303.249ZM375.444 66.98H397.284V164H375.444V66.98ZM484.561 145.24V164H419.741V66.98H441.581V145.24H484.561ZM563.448 145.24V164H498.628V66.98H520.468V145.24H563.448ZM599.129 106.88C603.049 100.253 606.782 93.6267 610.329 87C613.876 80.3733 617.142 73.7 620.129 66.98H644.209C638.889 77.4333 633.382 87.56 627.689 97.36C621.996 107.16 615.976 117.007 609.629 126.9V164H587.789V127.18C581.442 117.287 575.376 107.393 569.589 97.5C563.896 87.6067 558.389 77.4333 553.069 66.98H578.409C581.396 73.7 584.616 80.3733 588.069 87C591.522 93.6267 595.209 100.253 599.129 106.88ZM707.142 164C706.116 160.64 704.949 157.187 703.642 153.64C702.429 150.093 701.216 146.547 700.002 143H662.202C660.989 146.547 659.729 150.093 658.422 153.64C657.209 157.187 656.089 160.64 655.062 164H632.382C636.022 153.547 639.476 143.887 642.742 135.02C646.009 126.153 649.182 117.8 652.262 109.96C655.436 102.12 658.516 94.7 661.502 87.7C664.582 80.6067 667.756 73.7 671.022 66.98H691.882C695.056 73.7 698.182 80.6067 701.262 87.7C704.342 94.7 707.422 102.12 710.502 109.96C713.676 117.8 716.896 126.153 720.162 135.02C723.429 143.887 726.882 153.547 730.522 164H707.142ZM680.962 88.96C680.496 90.36 679.796 92.2733 678.862 94.7C677.929 97.1267 676.856 99.9267 675.642 103.1C674.429 106.273 673.076 109.773 671.582 113.6C670.182 117.427 668.736 121.44 667.242 125.64H694.822C693.329 121.44 691.882 117.427 690.482 113.6C689.082 109.773 687.729 106.273 686.422 103.1C685.209 99.9267 684.136 97.1267 683.202 94.7C682.269 92.2733 681.522 90.36 680.962 88.96ZM808.181 164C801.928 152.893 795.161 141.927 787.881 131.1C780.601 120.273 772.854 110.053 764.641 100.44V164H743.081V66.98H760.861C763.941 70.06 767.348 73.84 771.081 78.32C774.814 82.8 778.594 87.6067 782.421 92.74C786.341 97.78 790.214 103.053 794.041 108.56C797.868 113.973 801.461 119.2 804.821 124.24V66.98H826.521V164H808.181ZM1081.89 145.24V164H1017.07V66.98H1038.91V145.24H1081.89ZM1165.29 164C1164.26 160.64 1163.09 157.187 1161.79 153.64C1160.57 150.093 1159.36 146.547 1158.15 143H1120.35C1119.13 146.547 1117.87 150.093 1116.57 153.64C1115.35 157.187 1114.23 160.64 1113.21 164H1090.53C1094.17 153.547 1097.62 143.887 1100.89 135.02C1104.15 126.153 1107.33 117.8 1110.41 109.96C1113.58 102.12 1116.66 94.7 1119.65 87.7C1122.73 80.6067 1125.9 73.7 1129.17 66.98H1150.03C1153.2 73.7 1156.33 80.6067 1159.41 87.7C1162.49 94.7 1165.57 102.12 1168.65 109.96C1171.82 117.8 1175.04 126.153 1178.31 135.02C1181.57 143.887 1185.03 153.547 1188.67 164H1165.29ZM1139.11 88.96C1138.64 90.36 1137.94 92.2733 1137.01 94.7C1136.07 97.1267 1135 99.9267 1133.79 103.1C1132.57 106.273 1131.22 109.773 1129.73 113.6C1128.33 117.427 1126.88 121.44 1125.39 125.64H1152.97C1151.47 121.44 1150.03 117.427 1148.63 113.6C1147.23 109.773 1145.87 106.273 1144.57 103.1C1143.35 99.9267 1142.28 97.1267 1141.35 94.7C1140.41 92.2733 1139.67 90.36 1139.11 88.96ZM1233.57 165.26C1228.25 165.26 1222.93 165.073 1217.61 164.7C1212.38 164.42 1206.92 163.673 1201.23 162.46V68.38C1205.71 67.54 1210.61 66.9333 1215.93 66.56C1221.25 66.0933 1226.19 65.86 1230.77 65.86C1236.93 65.86 1242.57 66.3267 1247.71 67.26C1252.93 68.1 1257.41 69.5933 1261.15 71.74C1264.88 73.8867 1267.77 76.7333 1269.83 80.28C1271.97 83.7333 1273.05 88.0267 1273.05 93.16C1273.05 100.907 1269.31 107.02 1261.85 111.5C1268.01 113.833 1272.21 117.007 1274.45 121.02C1276.69 125.033 1277.81 129.56 1277.81 134.6C1277.81 144.773 1274.07 152.427 1266.61 157.56C1259.23 162.693 1248.22 165.26 1233.57 165.26ZM1222.51 121.72V146.78C1224.09 146.967 1225.82 147.107 1227.69 147.2C1229.55 147.293 1231.61 147.34 1233.85 147.34C1240.38 147.34 1245.65 146.407 1249.67 144.54C1253.68 142.673 1255.69 139.22 1255.69 134.18C1255.69 129.7 1254.01 126.527 1250.65 124.66C1247.29 122.7 1242.48 121.72 1236.23 121.72H1222.51ZM1222.51 105.06H1233.15C1239.87 105.06 1244.67 104.22 1247.57 102.54C1250.46 100.767 1251.91 97.9667 1251.91 94.14C1251.91 90.22 1250.41 87.4667 1247.43 85.88C1244.44 84.2933 1240.05 83.5 1234.27 83.5C1232.4 83.5 1230.39 83.5467 1228.25 83.64C1226.1 83.64 1224.19 83.7333 1222.51 83.92V105.06ZM1321.75 147.34C1324.83 147.34 1327.35 147.107 1329.31 146.64C1331.36 146.08 1332.99 145.38 1334.21 144.54C1335.42 143.607 1336.26 142.533 1336.73 141.32C1337.19 140.107 1337.43 138.753 1337.43 137.26C1337.43 134.087 1335.93 131.473 1332.95 129.42C1329.96 127.273 1324.83 124.987 1317.55 122.56C1314.37 121.44 1311.2 120.18 1308.03 118.78C1304.85 117.287 1302.01 115.467 1299.49 113.32C1296.97 111.08 1294.91 108.42 1293.33 105.34C1291.74 102.167 1290.95 98.34 1290.95 93.86C1290.95 89.38 1291.79 85.3667 1293.47 81.82C1295.15 78.18 1297.53 75.1 1300.61 72.58C1303.69 70.06 1307.42 68.1467 1311.81 66.84C1316.19 65.44 1321.14 64.74 1326.65 64.74C1333.18 64.74 1338.83 65.44 1343.59 66.84C1348.35 68.24 1352.27 69.78 1355.35 71.46L1349.05 88.68C1346.34 87.28 1343.31 86.0667 1339.95 85.04C1336.68 83.92 1332.71 83.36 1328.05 83.36C1322.82 83.36 1319.04 84.1067 1316.71 85.6C1314.47 87 1313.35 89.1933 1313.35 92.18C1313.35 93.9533 1313.77 95.4467 1314.61 96.66C1315.45 97.8733 1316.61 98.9933 1318.11 100.02C1319.69 100.953 1321.47 101.84 1323.43 102.68C1325.48 103.427 1327.72 104.22 1330.15 105.06C1335.19 106.927 1339.57 108.793 1343.31 110.66C1347.04 112.433 1350.12 114.533 1352.55 116.96C1355.07 119.387 1356.93 122.233 1358.15 125.5C1359.36 128.767 1359.97 132.733 1359.97 137.4C1359.97 146.453 1356.79 153.5 1350.45 158.54C1344.1 163.487 1334.53 165.96 1321.75 165.96C1317.45 165.96 1313.58 165.68 1310.13 165.12C1306.67 164.653 1303.59 164.047 1300.89 163.3C1298.27 162.553 1295.99 161.76 1294.03 160.92C1292.16 160.08 1290.57 159.287 1289.27 158.54L1295.43 141.18C1298.32 142.767 1301.87 144.213 1306.07 145.52C1310.36 146.733 1315.59 147.34 1321.75 147.34Z" fill="white"/>
<path fill-rule="evenodd" clip-rule="evenodd" d="M946.503 170.879H921.756H896.764C894.532 170.879 892.438 169.796 891.147 167.976C890.422 166.952 890.012 165.772 889.914 164.569C888.713 148.281 880.768 135.743 870.22 121.19C860.805 109.683 855 94.7839 855 78.7557C855 41.8875 884.888 12 921.756 12C958.624 12 988.511 41.8875 988.511 78.7557C988.511 94.5987 982.493 109.765 973.273 121.212C962.725 135.765 954.561 148.181 953.359 164.469C953.278 165.698 952.87 166.908 952.134 167.955C950.845 169.788 948.744 170.879 946.503 170.879ZM930.802 48.2803L926.44 38.4297C926.226 37.9458 925.749 37.6342 925.222 37.6342H918.289C917.763 37.6342 917.286 37.9458 917.072 38.4297L912.71 48.2803C912.57 48.5955 912.315 48.8444 911.998 48.9754L907.807 50.7064C907.478 50.842 907.11 50.8402 906.783 50.7014L897.048 46.5686C896.553 46.3586 895.981 46.468 895.597 46.8463L890.471 51.8995C890.085 52.28 889.965 52.8575 890.168 53.3617L894.155 63.2792C894.289 63.6122 894.285 63.9854 894.143 64.3152L892.452 68.2519C892.311 68.58 892.046 68.8379 891.716 68.9684L882.548 72.5899C882.038 72.7915 881.702 73.2871 881.702 73.839V81.5362C881.702 82.0881 882.038 82.5837 882.548 82.7853L891.716 86.4067C892.046 86.5373 892.311 86.7952 892.452 87.1232L894.143 91.06C894.285 91.3898 894.289 91.763 894.155 92.096L890.168 102.013C889.965 102.518 890.085 103.095 890.471 103.476L895.597 108.529C895.981 108.907 896.553 109.017 897.048 108.807L906.783 104.674C907.11 104.535 907.478 104.533 907.807 104.669L911.998 106.4C912.315 106.531 912.57 106.78 912.71 107.095L917.072 116.946C917.286 117.429 917.763 117.741 918.289 117.741H925.222C925.749 117.741 926.226 117.429 926.44 116.946L930.802 107.095C930.941 106.78 931.196 106.531 931.513 106.4L935.705 104.669C936.033 104.533 936.401 104.535 936.728 104.674L946.464 108.807C946.959 109.017 947.53 108.907 947.914 108.529L953.04 103.476C953.426 103.095 953.546 102.518 953.343 102.013L949.356 92.096C949.222 91.763 949.226 91.3898 949.368 91.06L951.059 87.1232C951.2 86.7952 951.465 86.5373 951.796 86.4067L960.963 82.7853C961.473 82.5837 961.809 82.0881 961.809 81.5362V73.839C961.809 73.2871 961.473 72.7915 960.963 72.5899L951.796 68.9684C951.465 68.8379 951.2 68.58 951.059 68.2519L949.368 64.3152C949.226 63.9854 949.222 63.6122 949.356 63.2792L953.343 53.3617C953.546 52.8575 953.426 52.28 953.04 51.8995L947.914 46.8463C947.53 46.468 946.959 46.3586 946.464 46.5686L936.728 50.7014C936.401 50.8402 936.033 50.842 935.705 50.7064L931.513 48.9754C931.196 48.8444 930.941 48.5955 930.802 48.2803Z" fill="white"/>
<path d="M933.905 77.6876C933.905 84.3239 928.525 89.7036 921.889 89.7036C915.253 89.7036 909.873 84.3239 909.873 77.6876C909.873 71.0513 915.253 65.6716 921.889 65.6716C928.525 65.6716 933.905 71.0513 933.905 77.6876Z" fill="white"/>
<path d="M921.756 175.151H946.363C948.686 175.151 950.877 176.332 952.179 178.256C953.782 180.624 953.779 183.773 952.134 186.112C950.845 187.945 948.744 189.036 946.503 189.036H921.756H896.764C894.532 189.036 892.438 187.954 891.147 186.133C889.482 183.785 889.48 180.612 891.102 178.234C892.406 176.323 894.589 175.151 896.903 175.151H921.756Z" fill="white"/>
<path d="M921.756 193.041H946.363C948.686 193.041 950.877 194.223 952.179 196.147C953.782 198.515 953.779 201.664 952.134 204.003C950.845 205.836 948.744 206.927 946.503 206.927H938.185C938.134 207.117 938.074 207.306 938.006 207.493C937.02 210.199 934.447 212 931.567 212H921.691H911.684C908.81 212 906.242 210.207 905.251 207.509C905.18 207.318 905.119 207.123 905.066 206.927H896.764C894.532 206.927 892.438 205.845 891.147 204.024C889.482 201.676 889.48 198.503 891.102 196.125C892.406 194.214 894.589 193.041 896.903 193.041H921.756Z" fill="white"/>
</svg>
